PathFileType	4	(X/Y/Z)	C:\Users\WrightLab\Desktop\Jo\P3_27.trc
DataRate	CameraRate	NumFrames	NumMarkers	Units	OrigDataRate	OrigDataStartFrame	OrigNumFrames
100.00	100.00	       50	19	mm	100.00	412	       549
Frame#	Time	Headset_Front			Headset_Back			Headset_Left			Headset_Right			Left_Shoulder			Right_Shoulder			Sternum			C7			Left Elbow			Right Elbow			Left Wrist			Right Wrist			Left ASIS			Right ASIS			S2			Left Knee			Right Knee			Left Ankle			Right Ankle			
		X1	Y1	Z1	X2	Y2	Z2	X3	Y3	Z3	X4	Y4	Z4	X5	Y5	Z5	X6	Y6	Z6	X7	Y7	Z7	X8	Y8	Z8	X9	Y9	Z9	X10	Y10	Z10	X11	Y11	Z11	X12	Y12	Z12	X13	Y13	Z13	X14	Y14	Z14	X15	Y15	Z15	X16	Y16	Z16	X17	Y17	Z17	X18	Y18	Z18	X19	Y19	Z19	

412	4.110													-698.35962	1297.36230	-1395.61584	-386.21188	1278.08032	-1209.89282				-561.45178	1337.54358	-1253.30396	-749.72772	965.64172	-1458.99890	-339.71387	927.99725	-1175.83313													-583.30176	888.64587	-1227.40295										-396.19653	67.75643	-1438.20496	
413	4.120													-693.12170	1300.67700	-1405.73413	-382.81973	1278.89453	-1213.64490				-557.55682	1338.01208	-1258.60352	-744.15601	967.88763	-1465.75330	-336.27209	929.67749	-1180.07336													-579.78082	889.59052	-1234.25671										-395.52914	69.28382	-1435.26343	
414	4.130													-687.16547	1301.25000	-1410.76074	-379.37439	1280.00378	-1218.86121							-738.23578	969.22076	-1472.24805	-333.12524	930.99774	-1186.23230													-575.78467	891.50525	-1241.72620										-395.64731	68.32244	-1439.65710	
415	4.140													-682.58606	1304.06836	-1419.60278	-376.75305	1280.84473	-1223.53369							-732.69067	971.06293	-1478.93042	-329.27219	931.86591	-1191.33484													-572.17053	892.85217	-1248.08533										-395.18692	67.82491	-1437.89111	
416	4.150													-677.48346	1306.24707	-1428.32861	-373.75098	1282.05078	-1228.87231							-727.54102	973.10010	-1486.46265	-325.25494	932.30951	-1193.81128													-568.81329	893.63354	-1254.75708										-394.79083	68.73389	-1437.01526	
417	4.160													-672.24030	1306.19873	-1432.49158	-370.78061	1282.81921	-1233.35364							-721.89038	974.42261	-1493.66968	-322.19977	933.90308	-1198.21631													-565.39337	895.18243	-1262.16785										-394.52817	67.94675	-1437.38770	
418	4.170													-667.23236	1308.18494	-1442.03906	-367.93338	1283.03711	-1237.49951							-716.73260	975.76367	-1501.46387	-319.09177	934.82080	-1201.89868													-561.85284	895.44830	-1268.19043										-393.89426	68.32285	-1436.89880	
419	4.180													-662.55023	1308.30994	-1447.62097	-365.31577	1283.90662	-1242.16638							-711.68933	976.22192	-1508.16211	-315.32465	935.77252	-1206.82080													-558.42108	894.95154	-1272.87549										-393.96017	67.91779	-1438.57385	
420	4.190													-657.30487	1309.72534	-1457.56873	-362.84851	1284.68140	-1247.00085							-706.43018	976.66376	-1515.22705	-312.33966	935.98688	-1210.66504													-555.68616	895.63770	-1279.82153										-393.82086	68.33139	-1436.79858	
421	4.200													-652.79950	1309.69458	-1463.94067	-360.01202	1284.51636	-1250.80493							-701.52356	977.21576	-1523.15759	-309.48145	936.18567	-1216.03223													-552.63971	896.06403	-1285.81799										-393.76001	68.04881	-1438.30823	
422	4.210													-648.36169	1309.61304	-1470.59521	-357.31271	1284.57007	-1254.95288							-696.61505	976.85693	-1529.76917	-305.67340	936.39746	-1218.93152													-550.75885	897.42896	-1292.26245										-392.92703	68.66756	-1434.62805	
423	4.220													-643.30176	1310.89014	-1481.33435	-355.18466	1284.64893	-1258.90051							-692.92529	975.42059	-1533.67773	-301.56998	936.82220	-1222.50171													-548.40771	896.41595	-1297.50684										-393.58124	67.84782	-1438.08887	
424	4.230													-639.04395	1309.81970	-1485.98193	-352.96826	1285.26733	-1263.59363							-687.10553	975.79401	-1543.38696	-298.80756	936.62439	-1227.21729													-546.87958	895.41742	-1302.69629										-393.41916	67.97873	-1437.87537	
425	4.240													-635.04260	1310.03589	-1493.17346	-350.47623	1284.42126	-1267.05225							-681.94489	975.83691	-1551.26721	-295.42258	936.43073	-1230.44104													-544.79675	896.25574	-1307.53308										-393.02426	66.90285	-1438.84668	
426	4.250													-630.46100	1310.68726	-1501.99402	-347.79987	1284.55945	-1267.07483							-677.08411	975.62311	-1558.78943	-291.82748	935.68793	-1232.27771													-542.74121	896.39429	-1313.13733										-390.92657	67.25070	-1436.56921	
427	4.260													-625.80402	1309.25220	-1506.01025	-346.18283	1285.16309	-1272.02393										-288.51022	935.42767	-1236.04175													-542.10260	896.64386	-1318.14441										-392.51450	67.90384	-1437.20776	
428	4.270													-621.52887	1310.84412	-1516.31030													-287.13004	936.17999	-1240.22449													-540.64001	897.07935	-1323.81396										-391.59683	67.20790	-1437.89966	
429	4.280													-617.30725	1310.38660	-1521.35449													-284.88364	937.41071	-1243.72351													-539.92188	895.10260	-1336.97522										-391.54092	67.24968	-1437.82581	
430	4.290													-613.49091	1309.96179	-1525.88403													-282.16061	937.48273	-1246.91772													-539.69415	895.12469	-1339.79321										-391.40173	67.35002	-1437.64160	
431	4.300																												-280.87326	937.14032	-1249.76685													-538.03082	895.37939	-1348.91772										-391.38876	67.36840	-1437.62500	
432	4.310																												-278.29413	937.42493	-1252.96704													-537.29126	896.16718	-1354.37805										-391.36356	67.40701	-1437.59314	
433	4.320																												-276.90536	937.68420	-1257.16492													-536.83826	895.83881	-1360.32227										-391.32034	67.44042	-1437.53613	
434	4.330																												-276.55341	938.69788	-1259.24658													-535.99976	896.24066	-1367.39661										-391.52667	68.68385	-1436.31763	
435	4.340																												-275.13248	938.94653	-1263.13220													-535.39160	896.19299	-1371.32202										-391.19696	67.55930	-1437.37488	
436	4.350																												-274.77094	939.57550	-1265.15405													-535.16290	899.21069	-1373.15613										-391.22641	67.98703	-1437.31921	
437	4.360																												-273.93188	939.23450	-1268.89160													-534.66815	900.05798	-1377.81262										-391.18054	68.03935	-1437.25989	
438	4.370																												-273.21631	940.04346	-1270.51831													-533.64044	900.70758	-1384.09741										-391.34995	69.27925	-1435.99084	
439	4.380																												-273.86520	941.41907	-1273.69446													-534.18933	900.34717	-1386.59741										-391.15152	68.07339	-1437.22229	
440	4.390																												-274.07272	941.53027	-1275.75488													-534.27393	900.25677	-1397.97412										-391.61639	69.52650	-1436.12427	
441	4.400																												-275.39725	942.23132	-1277.64148													-535.00208	902.15851	-1403.70203										-392.04681	69.49249	-1436.38269	
442	4.410																												-275.69336	942.28296	-1280.60046													-534.87085	903.08600	-1411.27380										-392.14169	69.41553	-1436.50757	
443	4.420																												-275.71960	942.08472	-1282.83801													-535.02533	903.77557	-1412.90979										-392.22861	69.37184	-1436.62390	
444	4.430																												-275.63681	943.33673	-1285.83655																									-392.30087	69.28780	-1436.71716	
445	4.440																												-277.07333	942.91248	-1286.85681																									-392.96689	68.71436	-1437.26575	
446	4.450																												-278.11075	942.87140	-1288.02771																									-393.03058	68.68125	-1437.35083	
447	4.460																												-279.31174	943.06036	-1288.95605																									-393.07095	68.98396	-1435.81519	
448	4.470																												-281.28812	942.92688	-1290.56177																									-393.12106	68.94405	-1435.88110	
449	4.480																												-281.88419	943.10736	-1292.70996																									-393.18689	68.89491	-1435.96802	
450	4.490																												-282.44241	943.20343	-1294.54248																									-393.45291	69.65456	-1435.59863	
451	4.500																												-284.83163	942.86798	-1295.98120																									-393.66727	69.38554	-1437.76038	
452	4.510																												-287.58926	942.68152	-1302.07288																									-393.27499	68.87375	-1436.08752	
453	4.520																												-288.93677	941.03943	-1309.20581																									-393.52194	69.65235	-1435.69324	
454	4.530																												-290.37177	942.99878	-1307.87134																									-393.67914	69.42853	-1437.77966	
455	4.540																												-293.69086	942.98438	-1305.65930																									-393.48483	69.70206	-1435.64575	
456	4.550																												-296.69537	941.25519	-1313.87488																									-393.47360	69.74526	-1435.63342	
457	4.560																												-299.78540	944.01239	-1307.18018																									-393.99207	69.67112	-1438.77588	
458	4.570																												-303.45419	941.33221	-1316.45288																									-393.52771	69.74443	-1435.70764	
459	4.580																												-307.05627	943.47113	-1312.45056																									-393.75284	69.89941	-1436.84424	
460	4.590																												-311.23514	942.44495	-1318.69312																									-394.00699	70.56685	-1437.25854	
461	4.600																												-314.78928	942.79333	-1310.44751																									-394.02219	69.73264	-1438.82153	
